<svg xmlns="http://www.w3.org/2000/svg" viewBox="0 0 21.23 16.25"><defs><style>.cls-1{fill:#5698ed;}.cls-2{fill:#ecf8ff;stroke:#14abe3;stroke-miterlimit:10;}</style></defs><g id="Capa_2" data-name="Capa 2"><g id="Capa_1-2" data-name="Capa 1"><path class="cls-1" d="M17.52,13.86H3.71a3.67,3.67,0,0,1-2.78-1A3.73,3.73,0,0,1,0,10.14V3.68C0,1.3,1.32,0,3.71,0H17.52c2.39,0,3.71,1.31,3.71,3.68v6.46a3.77,3.77,0,0,1-.93,2.71,3.68,3.68,0,0,1-2.78,1Z"/><path class="cls-1" d="M13.26,16.25H8A.61.61,0,1,1,8,15h5.3a.61.61,0,0,1,0,1.21Z"/><path class="cls-2" d="M3.61,1a2.61,2.61,0,0,0-1.92.63,2.7,2.7,0,0,0-.58,1.89v6.57c0,1.74.79,2.55,2.5,2.55H17.42c1.7,0,2.5-.81,2.5-2.55V3.49a2.66,2.66,0,0,0-.59-1.89A2.59,2.59,0,0,0,17.41,1Z"/></g></g></svg>